{
	"asset":{
		"generator":"Khronos glTF Blender I/O v4.5.47",
		"version":"2.0"
	},
	"scene":0,
	"scenes":[
		{
			"name":"Scene",
			"nodes":[
				4
			]
		}
	],
	"nodes":[
		{
			"mesh":0,
			"name":"torch_body",
			"scale":[
				0.29984116554260254,
				0.29984116554260254,
				0.29984116554260254
			],
			"translation":[
				0.09974533319473267,
				0,
				0
			]
		},
		{
			"mesh":1,
			"name":"torch_grip_1",
			"scale":[
				0.29984116554260254,
				0.29984116554260254,
				0.29984116554260254
			],
			"translation":[
				-0.128553569316864,
				0,
				0
			]
		},
		{
			"mesh":2,
			"name":"torch_grip_2",
			"scale":[
				0.29984116554260254,
				0.29984116554260254,
				0.29984116554260254
			],
			"translation":[
				0.09974533319473267,
				0,
				0
			]
		},
		{
			"mesh":3,
			"name":"torch_lens",
			"scale":[
				0.29984116554260254,
				0.29984116554260254,
				0.29984116554260254
			],
			"translation":[
				0.10291323065757751,
				0,
				0
			]
		},
		{
			"children":[
				0,
				1,
				2,
				3
			],
			"name":"torch_root"
		}
	],
	"materials":[
		{
			"doubleSided":true,
			"name":"torch_body",
			"pbrMetallicRoughness":{
				"baseColorFactor":[
					0.009999275207519531,
					0.009999275207519531,
					0.009999275207519531,
					1
				],
				"metallicFactor":0.6181818246841431,
				"roughnessFactor":0.40909087657928467
			}
		},
		{
			"doubleSided":true,
			"name":"torch_grip",
			"pbrMetallicRoughness":{
				"baseColorFactor":[
					0,
					0,
					0,
					1
				],
				"metallicFactor":0,
				"roughnessFactor":0.6054545044898987
			}
		},
		{
			"doubleSided":true,
			"emissiveFactor":[
				1,
				1,
				1
			],
			"name":"torch_lens",
			"pbrMetallicRoughness":{
				"baseColorFactor":[
					0.800000011920929,
					0.800000011920929,
					0.800000011920929,
					1
				],
				"metallicFactor":0.807272732257843,
				"roughnessFactor":0.07818183302879333
			}
		}
	],
	"meshes":[
		{
			"name":"Mesh",
			"primitives":[
				{
					"attributes":{
						"POSITION":0,
						"NORMAL":1,
						"TEXCOORD_0":2
					},
					"indices":3,
					"material":0
				}
			]
		},
		{
			"name":"Mesh",
			"primitives":[
				{
					"attributes":{
						"POSITION":4,
						"NORMAL":5,
						"TEXCOORD_0":6
					},
					"indices":7,
					"material":1
				}
			]
		},
		{
			"name":"Mesh",
			"primitives":[
				{
					"attributes":{
						"POSITION":8,
						"NORMAL":9,
						"TEXCOORD_0":10
					},
					"indices":11,
					"material":1
				}
			]
		},
		{
			"name":"Cylinder.004",
			"primitives":[
				{
					"attributes":{
						"POSITION":12,
						"NORMAL":13,
						"TEXCOORD_0":14
					},
					"indices":15,
					"material":2
				}
			]
		}
	],
	"accessors":[
		{
			"bufferView":0,
			"componentType":5126,
			"count":12886,
			"max":[
				0.35180795192718506,
				0.1725461483001709,
				0.1725461781024933
			],
			"min":[
				-0.9813148975372314,
				-0.17254619300365448,
				-0.1725461781024933
			],
			"type":"VEC3"
		},
		{
			"bufferView":1,
			"componentType":5126,
			"count":12886,
			"type":"VEC3"
		},
		{
			"bufferView":2,
			"componentType":5126,
			"count":12886,
			"type":"VEC2"
		},
		{
			"bufferView":3,
			"componentType":5123,
			"count":69120,
			"type":"SCALAR"
		},
		{
			"bufferView":4,
			"componentType":5126,
			"count":20138,
			"max":[
				0.02982262149453163,
				0.17677530646324158,
				0.17677533626556396
			],
			"min":[
				-0.02982272021472454,
				-0.17677530646324158,
				-0.17677533626556396
			],
			"type":"VEC3"
		},
		{
			"bufferView":5,
			"componentType":5126,
			"count":20138,
			"type":"VEC3"
		},
		{
			"bufferView":6,
			"componentType":5126,
			"count":20138,
			"type":"VEC2"
		},
		{
			"bufferView":7,
			"componentType":5123,
			"count":81408,
			"type":"SCALAR"
		},
		{
			"bufferView":8,
			"componentType":5126,
			"count":56438,
			"max":[
				0.18086223304271698,
				0.10863339900970459,
				0.10863339900970459
			],
			"min":[
				-0.37233251333236694,
				-0.10863340646028519,
				-0.10863339900970459
			],
			"type":"VEC3"
		},
		{
			"bufferView":9,
			"componentType":5126,
			"count":56438,
			"type":"VEC3"
		},
		{
			"bufferView":10,
			"componentType":5126,
			"count":56438,
			"type":"VEC2"
		},
		{
			"bufferView":11,
			"componentType":5123,
			"count":208896,
			"type":"SCALAR"
		},
		{
			"bufferView":12,
			"componentType":5126,
			"count":32,
			"max":[
				-0.9815577864646912,
				0.16462945938110352,
				0.1646294742822647
			],
			"min":[
				-0.9815579652786255,
				-0.1646294891834259,
				-0.1646294742822647
			],
			"type":"VEC3"
		},
		{
			"bufferView":13,
			"componentType":5126,
			"count":32,
			"type":"VEC3"
		},
		{
			"bufferView":14,
			"componentType":5126,
			"count":32,
			"type":"VEC2"
		},
		{
			"bufferView":15,
			"componentType":5123,
			"count":90,
			"type":"SCALAR"
		}
	],
	"bufferViews":[
		{
			"buffer":0,
			"byteLength":154632,
			"byteOffset":0,
			"target":34962
		},
		{
			"buffer":0,
			"byteLength":154632,
			"byteOffset":154632,
			"target":34962
		},
		{
			"buffer":0,
			"byteLength":103088,
			"byteOffset":309264,
			"target":34962
		},
		{
			"buffer":0,
			"byteLength":138240,
			"byteOffset":412352,
			"target":34963
		},
		{
			"buffer":0,
			"byteLength":241656,
			"byteOffset":550592,
			"target":34962
		},
		{
			"buffer":0,
			"byteLength":241656,
			"byteOffset":792248,
			"target":34962
		},
		{
			"buffer":0,
			"byteLength":161104,
			"byteOffset":1033904,
			"target":34962
		},
		{
			"buffer":0,
			"byteLength":162816,
			"byteOffset":1195008,
			"target":34963
		},
		{
			"buffer":0,
			"byteLength":677256,
			"byteOffset":1357824,
			"target":34962
		},
		{
			"buffer":0,
			"byteLength":677256,
			"byteOffset":2035080,
			"target":34962
		},
		{
			"buffer":0,
			"byteLength":451504,
			"byteOffset":2712336,
			"target":34962
		},
		{
			"buffer":0,
			"byteLength":417792,
			"byteOffset":3163840,
			"target":34963
		},
		{
			"buffer":0,
			"byteLength":384,
			"byteOffset":3581632,
			"target":34962
		},
		{
			"buffer":0,
			"byteLength":384,
			"byteOffset":3582016,
			"target":34962
		},
		{
			"buffer":0,
			"byteLength":256,
			"byteOffset":3582400,
			"target":34962
		},
		{
			"buffer":0,
			"byteLength":180,
			"byteOffset":3582656,
			"target":34963
		}
	],
	"buffers":[
		{
			"byteLength":3582836,
			"uri":"flashlight.bin"
		}
	]
}
