{
	"asset":{
		"generator":"Khronos glTF Blender I/O v4.2.83",
		"version":"2.0"
	},
	"extensionsUsed":[
		"KHR_materials_specular"
	],
	"scene":0,
	"scenes":[
		{
			"name":"Scene",
			"nodes":[
				0,
				1,
				2,
				3,
				4,
				5,
				6,
				7
			]
		}
	],
	"nodes":[
		{
			"mesh":0,
			"name":"BasementSide",
			"translation":[
				-0.010751724243164062,
				1.9698925018310547,
				-2.6538848876953125
			]
		},
		{
			"mesh":1,
			"name":"Pillars",
			"translation":[
				-0.03743767738342285,
				1.9698829650878906,
				0.09357357025146484
			]
		},
		{
			"mesh":2,
			"name":"Basement",
			"translation":[
				-0.037438392639160156,
				1.9697685241699219,
				-0.05423784255981445
			]
		},
		{
			"mesh":3,
			"name":"Spawn",
			"translation":[
				0.017568439245224,
				0.5579296350479126,
				-6.402111053466797
			]
		},
		{
			"mesh":4,
			"name":"Stair",
			"translation":[
				4.438836097717285,
				-0.03384368121623993,
				8.701308250427246
			]
		},
		{
			"mesh":5,
			"name":"Crate",
			"translation":[
				-1.622572898864746,
				-0.0025559067726135254,
				-11.901260375976562
			]
		},
		{
			"mesh":6,
			"name":"SolarLightTower",
			"translation":[
				-10.827736854553223,
				0.006661534309387207,
				6.705239295959473
			]
		},
		{
			"mesh":7,
			"name":"Doors",
			"translation":[
				2.693439483642578,
				1.2728445529937744,
				0.18033456802368164
			]
		}
	],
	"materials":[
		{
			"doubleSided":true,
			"extensions":{
				"KHR_materials_specular":{
					"specularColorFactor":[
						2.0,
						2.0,
						2.0
					]
				}
			},
			"name":"BasementSide",
			"normalTexture":{
				"index":0
			},
			"occlusionTexture":{
				"index":1
			},
			"pbrMetallicRoughness":{
				"baseColorTexture":{
					"index":2
				},
				"metallicRoughnessTexture":{
					"index":1
				}
			}
		},
		{
			"doubleSided":true,
			"extensions":{
				"KHR_materials_specular":{
					"specularColorFactor":[
						2.0,
						2.0,
						2.0
					]
				}
			},
			"name":"Material #54",
			"normalTexture":{
				"index":3
			},
			"occlusionTexture":{
				"index":4
			},
			"pbrMetallicRoughness":{
				"baseColorTexture":{
					"index":5
				},
				"metallicRoughnessTexture":{
					"index":4
				}
			}
		},
		{
			"doubleSided":true,
			"extensions":{
				"KHR_materials_specular":{
					"specularColorFactor":[
						2.0,
						2.0,
						2.0
					]
				}
			},
			"name":"Basement",
			"normalTexture":{
				"index":6
			},
			"occlusionTexture":{
				"index":7
			},
			"pbrMetallicRoughness":{
				"baseColorTexture":{
					"index":8
				},
				"metallicRoughnessTexture":{
					"index":7
				}
			}
		},
		{
			"doubleSided":true,
			"extensions":{
				"KHR_materials_specular":{
					"specularColorFactor":[
						2.0,
						2.0,
						2.0
					]
				}
			},
			"name":"Crate",
			"normalTexture":{
				"index":9
			},
			"occlusionTexture":{
				"index":10
			},
			"pbrMetallicRoughness":{
				"baseColorTexture":{
					"index":11
				},
				"metallicRoughnessTexture":{
					"index":10
				}
			}
		},
		{
			"doubleSided":true,
			"extensions":{
				"KHR_materials_specular":{
					"specularColorFactor":[
						2.0,
						2.0,
						2.0
					]
				}
			},
			"name":"SolarLightTower",
			"normalTexture":{
				"index":12
			},
			"occlusionTexture":{
				"index":13
			},
			"pbrMetallicRoughness":{
				"baseColorTexture":{
					"index":14
				},
				"metallicRoughnessTexture":{
					"index":13
				}
			}
		},
		{
			"doubleSided":true,
			"extensions":{
				"KHR_materials_specular":{
					"specularColorFactor":[
						2.0,
						2.0,
						2.0
					]
				}
			},
			"name":"Doors",
			"occlusionTexture":{
				"index":15
			},
			"pbrMetallicRoughness":{
				"baseColorTexture":{
					"index":16
				},
				"metallicRoughnessTexture":{
					"index":15
				}
			}
		}
	],
	"meshes":[
		{
			"name":"Mesh",
			"primitives":[
				{
					"attributes":{
						"POSITION":0,
						"NORMAL":1,
						"TEXCOORD_0":2
					},
					"indices":3,
					"material":0
				}
			]
		},
		{
			"name":"Mesh.001",
			"primitives":[
				{
					"attributes":{
						"POSITION":4,
						"NORMAL":5,
						"TEXCOORD_0":6
					},
					"indices":7,
					"material":1
				}
			]
		},
		{
			"name":"Mesh.002",
			"primitives":[
				{
					"attributes":{
						"POSITION":8,
						"NORMAL":9,
						"TEXCOORD_0":10
					},
					"indices":11,
					"material":2
				}
			]
		},
		{
			"name":"Mesh.003",
			"primitives":[
				{
					"attributes":{
						"POSITION":12,
						"NORMAL":13,
						"TEXCOORD_0":14
					},
					"indices":15
				}
			]
		},
		{
			"name":"Mesh.004",
			"primitives":[
				{
					"attributes":{
						"POSITION":16,
						"NORMAL":17,
						"TEXCOORD_0":18
					},
					"indices":19,
					"material":2
				}
			]
		},
		{
			"name":"Mesh.005",
			"primitives":[
				{
					"attributes":{
						"POSITION":20,
						"NORMAL":21,
						"TEXCOORD_0":22
					},
					"indices":23,
					"material":3
				}
			]
		},
		{
			"name":"Mesh.006",
			"primitives":[
				{
					"attributes":{
						"POSITION":24,
						"NORMAL":25,
						"TEXCOORD_0":26,
						"TEXCOORD_1":27
					},
					"indices":28,
					"material":4
				}
			]
		},
		{
			"name":"Mesh.007",
			"primitives":[
				{
					"attributes":{
						"POSITION":29,
						"NORMAL":30,
						"TEXCOORD_0":31
					},
					"indices":32,
					"material":5
				}
			]
		}
	],
	"textures":[
		{
			"sampler":0,
			"source":0
		},
		{
			"sampler":0,
			"source":1
		},
		{
			"sampler":0,
			"source":2
		},
		{
			"sampler":0,
			"source":3
		},
		{
			"sampler":0,
			"source":4
		},
		{
			"sampler":0,
			"source":5
		},
		{
			"sampler":0,
			"source":6
		},
		{
			"sampler":0,
			"source":7
		},
		{
			"sampler":0,
			"source":8
		},
		{
			"sampler":0,
			"source":9
		},
		{
			"sampler":0,
			"source":10
		},
		{
			"sampler":0,
			"source":11
		},
		{
			"sampler":0,
			"source":12
		},
		{
			"sampler":0,
			"source":13
		},
		{
			"sampler":0,
			"source":14
		},
		{
			"sampler":0,
			"source":15
		},
		{
			"sampler":0,
			"source":16
		}
	],
	"images":[
		{
			"mimeType":"image/png",
			"name":"Map #2138627194",
			"uri":"Map%202138627194.png"
		},
		{
			"mimeType":"image/png",
			"name":"StoreyConcretSide_ORM",
			"uri":"StoreyConcretSide_ORM.png"
		},
		{
			"mimeType":"image/png",
			"name":"Map #2138627192",
			"uri":"Map%202138627192.png"
		},
		{
			"mimeType":"image/png",
			"name":"Map #2138627203",
			"uri":"Map%202138627203.png"
		},
		{
			"mimeType":"image/png",
			"name":"PillarsConcret_ORM",
			"uri":"PillarsConcret_ORM.png"
		},
		{
			"mimeType":"image/png",
			"name":"Map #2138627201",
			"uri":"Map%202138627201.png"
		},
		{
			"mimeType":"image/png",
			"name":"Map #2138627200",
			"uri":"Map%202138627200.png"
		},
		{
			"mimeType":"image/png",
			"name":"StoreyConcret_ORM",
			"uri":"StoreyConcret_ORM.png"
		},
		{
			"mimeType":"image/png",
			"name":"Map #2138627198",
			"uri":"Map%202138627198.png"
		},
		{
			"mimeType":"image/png",
			"name":"Map #2138627305",
			"uri":"Map%202138627305.png"
		},
		{
			"mimeType":"image/png",
			"name":"CratesALL_20_ORM",
			"uri":"CratesALL_20_ORM.png"
		},
		{
			"mimeType":"image/png",
			"name":"Map #2138627302",
			"uri":"Map%202138627302.png"
		},
		{
			"mimeType":"image/png",
			"name":"Map #2138627264",
			"uri":"Map%202138627264.png"
		},
		{
			"mimeType":"image/png",
			"name":"SolarLightTower_ORM",
			"uri":"SolarLightTower_ORM.png"
		},
		{
			"mimeType":"image/png",
			"name":"Map #2138627261",
			"uri":"Map%202138627261.png"
		},
		{
			"mimeType":"image/png",
			"name":"Doors_ORM",
			"uri":"Doors_ORM.png"
		},
		{
			"mimeType":"image/png",
			"name":"Map #2138627306",
			"uri":"Map%202138627306.png"
		}
	],
	"accessors":[
		{
			"bufferView":0,
			"componentType":5126,
			"count":620,
			"max":[
				30.637027740478516,
				2.0198206901550293,
				16.313505172729492
			],
			"min":[
				-20.811561584472656,
				-2.0059094429016113,
				-11.089293479919434
			],
			"type":"VEC3"
		},
		{
			"bufferView":1,
			"componentType":5126,
			"count":620,
			"type":"VEC3"
		},
		{
			"bufferView":2,
			"componentType":5126,
			"count":620,
			"type":"VEC2"
		},
		{
			"bufferView":3,
			"componentType":5123,
			"count":984,
			"type":"SCALAR"
		},
		{
			"bufferView":4,
			"componentType":5126,
			"count":352,
			"max":[
				14.90841007232666,
				2.035435676574707,
				11.1561918258667
			],
			"min":[
				-12.13428783416748,
				-2.018795967102051,
				-11.457907676696777
			],
			"type":"VEC3"
		},
		{
			"bufferView":5,
			"componentType":5126,
			"count":352,
			"type":"VEC3"
		},
		{
			"bufferView":6,
			"componentType":5126,
			"count":352,
			"type":"VEC2"
		},
		{
			"bufferView":7,
			"componentType":5123,
			"count":528,
			"type":"SCALAR"
		},
		{
			"bufferView":8,
			"componentType":5126,
			"count":1100,
			"max":[
				30.202510833740234,
				8.807914733886719,
				14.871950149536133
			],
			"min":[
				-29.351608276367188,
				-2.363091468811035,
				-14.872637748718262
			],
			"type":"VEC3"
		},
		{
			"bufferView":9,
			"componentType":5126,
			"count":1100,
			"type":"VEC3"
		},
		{
			"bufferView":10,
			"componentType":5126,
			"count":1100,
			"type":"VEC2"
		},
		{
			"bufferView":11,
			"componentType":5123,
			"count":2232,
			"type":"SCALAR"
		},
		{
			"bufferView":12,
			"componentType":5126,
			"count":24,
			"max":[
				0.2750000059604645,
				0,
				0.2750399112701416
			],
			"min":[
				-0.2750000059604645,
				-0.550000011920929,
				-0.2750399112701416
			],
			"type":"VEC3"
		},
		{
			"bufferView":13,
			"componentType":5126,
			"count":24,
			"type":"VEC3"
		},
		{
			"bufferView":14,
			"componentType":5126,
			"count":24,
			"type":"VEC2"
		},
		{
			"bufferView":15,
			"componentType":5123,
			"count":36,
			"type":"SCALAR"
		},
		{
			"bufferView":16,
			"componentType":5126,
			"count":121,
			"max":[
				-5.8597620977707265e-08,
				4.006572723388672,
				4.656894207000732
			],
			"min":[
				-2.205172061920166,
				0,
				0.3880741596221924
			],
			"type":"VEC3"
		},
		{
			"bufferView":17,
			"componentType":5126,
			"count":121,
			"type":"VEC3"
		},
		{
			"bufferView":18,
			"componentType":5126,
			"count":121,
			"type":"VEC2"
		},
		{
			"bufferView":19,
			"componentType":5123,
			"count":213,
			"type":"SCALAR"
		},
		{
			"bufferView":20,
			"componentType":5126,
			"count":9216,
			"max":[
				14.152565002441406,
				1.3639917373657227,
				21.762767791748047
			],
			"min":[
				-18.481578826904297,
				0.004256129264831543,
				-1.180082082748413
			],
			"type":"VEC3"
		},
		{
			"bufferView":21,
			"componentType":5126,
			"count":9216,
			"type":"VEC3"
		},
		{
			"bufferView":22,
			"componentType":5126,
			"count":9216,
			"type":"VEC2"
		},
		{
			"bufferView":23,
			"componentType":5123,
			"count":18540,
			"type":"SCALAR"
		},
		{
			"bufferView":24,
			"componentType":5126,
			"count":11038,
			"max":[
				25.86968231201172,
				3.2970848083496094,
				0.9830971956253052
			],
			"min":[
				-0.998150110244751,
				-0.013277331367135048,
				-16.33513069152832
			],
			"type":"VEC3"
		},
		{
			"bufferView":25,
			"componentType":5126,
			"count":11038,
			"type":"VEC3"
		},
		{
			"bufferView":26,
			"componentType":5126,
			"count":11038,
			"type":"VEC2"
		},
		{
			"bufferView":27,
			"componentType":5126,
			"count":11038,
			"type":"VEC2"
		},
		{
			"bufferView":28,
			"componentType":5123,
			"count":28680,
			"type":"SCALAR"
		},
		{
			"bufferView":29,
			"componentType":5126,
			"count":2400,
			"max":[
				19.381824493408203,
				1.265235185623169,
				8.030876159667969
			],
			"min":[
				-19.381824493408203,
				-1.265235185623169,
				-8.030876159667969
			],
			"type":"VEC3"
		},
		{
			"bufferView":30,
			"componentType":5126,
			"count":2400,
			"type":"VEC3"
		},
		{
			"bufferView":31,
			"componentType":5126,
			"count":2400,
			"type":"VEC2"
		},
		{
			"bufferView":32,
			"componentType":5123,
			"count":5100,
			"type":"SCALAR"
		}
	],
	"bufferViews":[
		{
			"buffer":0,
			"byteLength":7440,
			"byteOffset":0,
			"target":34962
		},
		{
			"buffer":0,
			"byteLength":7440,
			"byteOffset":7440,
			"target":34962
		},
		{
			"buffer":0,
			"byteLength":4960,
			"byteOffset":14880,
			"target":34962
		},
		{
			"buffer":0,
			"byteLength":1968,
			"byteOffset":19840,
			"target":34963
		},
		{
			"buffer":0,
			"byteLength":4224,
			"byteOffset":21808,
			"target":34962
		},
		{
			"buffer":0,
			"byteLength":4224,
			"byteOffset":26032,
			"target":34962
		},
		{
			"buffer":0,
			"byteLength":2816,
			"byteOffset":30256,
			"target":34962
		},
		{
			"buffer":0,
			"byteLength":1056,
			"byteOffset":33072,
			"target":34963
		},
		{
			"buffer":0,
			"byteLength":13200,
			"byteOffset":34128,
			"target":34962
		},
		{
			"buffer":0,
			"byteLength":13200,
			"byteOffset":47328,
			"target":34962
		},
		{
			"buffer":0,
			"byteLength":8800,
			"byteOffset":60528,
			"target":34962
		},
		{
			"buffer":0,
			"byteLength":4464,
			"byteOffset":69328,
			"target":34963
		},
		{
			"buffer":0,
			"byteLength":288,
			"byteOffset":73792,
			"target":34962
		},
		{
			"buffer":0,
			"byteLength":288,
			"byteOffset":74080,
			"target":34962
		},
		{
			"buffer":0,
			"byteLength":192,
			"byteOffset":74368,
			"target":34962
		},
		{
			"buffer":0,
			"byteLength":72,
			"byteOffset":74560,
			"target":34963
		},
		{
			"buffer":0,
			"byteLength":1452,
			"byteOffset":74632,
			"target":34962
		},
		{
			"buffer":0,
			"byteLength":1452,
			"byteOffset":76084,
			"target":34962
		},
		{
			"buffer":0,
			"byteLength":968,
			"byteOffset":77536,
			"target":34962
		},
		{
			"buffer":0,
			"byteLength":426,
			"byteOffset":78504,
			"target":34963
		},
		{
			"buffer":0,
			"byteLength":110592,
			"byteOffset":78932,
			"target":34962
		},
		{
			"buffer":0,
			"byteLength":110592,
			"byteOffset":189524,
			"target":34962
		},
		{
			"buffer":0,
			"byteLength":73728,
			"byteOffset":300116,
			"target":34962
		},
		{
			"buffer":0,
			"byteLength":37080,
			"byteOffset":373844,
			"target":34963
		},
		{
			"buffer":0,
			"byteLength":132456,
			"byteOffset":410924,
			"target":34962
		},
		{
			"buffer":0,
			"byteLength":132456,
			"byteOffset":543380,
			"target":34962
		},
		{
			"buffer":0,
			"byteLength":88304,
			"byteOffset":675836,
			"target":34962
		},
		{
			"buffer":0,
			"byteLength":88304,
			"byteOffset":764140,
			"target":34962
		},
		{
			"buffer":0,
			"byteLength":57360,
			"byteOffset":852444,
			"target":34963
		},
		{
			"buffer":0,
			"byteLength":28800,
			"byteOffset":909804,
			"target":34962
		},
		{
			"buffer":0,
			"byteLength":28800,
			"byteOffset":938604,
			"target":34962
		},
		{
			"buffer":0,
			"byteLength":19200,
			"byteOffset":967404,
			"target":34962
		},
		{
			"buffer":0,
			"byteLength":10200,
			"byteOffset":986604,
			"target":34963
		}
	],
	"samplers":[
		{
			"magFilter":9729,
			"minFilter":9987
		}
	],
	"buffers":[
		{
			"byteLength":996804,
			"uri":"basement.bin"
		}
	]
}
